<?xml version="1.0" ?>
<!-- Uploaded to: SVG Repo, www.svgrepo.com, Generator: SVG Repo Mixer Tools -->
<svg width="800px" height="800px" viewBox="0 0 64 64" xmlns="http://www.w3.org/2000/svg">
<g data-name="17_Graduation" id="_17_Graduation">
<rect height="10" style="fill:#febc00" width="54" x="5" y="36"/>
<path d="M7,36H5V46H59V44H15A8,8,0,0,1,7,36Z" style="fill:#edaa03"/>
<path d="M34.044,45.477a8,8,0,0,1-6.529-4.087L17,51.907a1,1,0,0,0,.516,1.689l2.854.555.579,2.883a1,1,0,0,0,1.688.51L34.327,45.853,34,45.523Z" style="fill:#cc2600"/>
<path d="M46.156,51.407l-10.3-10.3a8,8,0,0,1-6.728,3.889l.03.029-.329.33L40.519,57.044a1,1,0,0,0,1.687-.51l.579-2.883L45.64,53.1a1,1,0,0,0,.516-1.689Z" style="fill:#cc2600"/>
<path d="M32.126,47.994c-.042,0-.083.006-.126.006-.154,0-.3-.014-.456-.023l-.046.046.329.33.329-.33Z" style="fill:#cc2600"/>
<path d="M15,12H49a0,0,0,0,1,0,0V30a2,2,0,0,1-2,2H17a2,2,0,0,1-2-2V12A0,0,0,0,1,15,12Z" style="fill:#0455bf"/>
<path d="M17,12H15V30a2,2,0,0,0,2,2H47a2,2,0,0,0,2-2H35A18,18,0,0,1,17,12Z" style="fill:#004787"/>
<rect height="12" style="fill:#0455bf" width="2" x="53" y="11"/>
<rect height="12" style="fill:#004787" width="1" x="54" y="11"/>
<path d="M56.25,34h-4.5c-.414,0-.75-.447-.75-1V22c0-.553.336-1,.75-1h4.5c.414,0,.75.447.75,1V33C57,33.553,56.664,34,56.25,34Z" style="fill:#f74e0c"/>
<path d="M53.75,32c-.414,0-.75-.447-.75-1V21H51.75c-.414,0-.75.447-.75,1V33c0,.553.336,1,.75,1h4.5c.414,0,.75-.447.75-1V32Z" style="fill:#cc2600"/>
<path d="M5,46c-1.71,0-3-2.149-3-5s1.29-5,3-5,3,2.149,3,5S6.71,46,5,46Z" style="fill:#f74e0c"/>
<path d="M4,40a6.5,6.5,0,0,1,1.157-3.975C5.1,36.021,5.054,36,5,36c-1.71,0-3,2.149-3,5s1.29,5,3,5a2.37,2.37,0,0,0,1.843-1.025C5.214,44.845,4,42.761,4,40Z" style="fill:#cc2600"/>
<path d="M59,46c-1.71,0-3-2.149-3-5s1.29-5,3-5,3,2.149,3,5S60.71,46,59,46Z" style="fill:#f74e0c"/>
<path d="M32,49a8,8,0,1,1,8-8A8.009,8.009,0,0,1,32,49Z" style="fill:#f74e0c"/>
<path d="M32,45a4,4,0,1,1,4-4A4,4,0,0,1,32,45Z" style="fill:#cc2600"/>
<path d="M56,14H8a1,1,0,0,1-1-1V9A1,1,0,0,1,8,8H56a1,1,0,0,1,1,1v4A1,1,0,0,1,56,14Z" style="fill:#0455bf"/>
<path d="M57,12H9V8H8A1,1,0,0,0,7,9v4a1,1,0,0,0,1,1H56a1,1,0,0,0,1-1Z" style="fill:#004787"/>
</g>
</svg>