<?xml version="1.0" ?>
<!-- Uploaded to: SVG Repo, www.svgrepo.com, Generator: SVG Repo Mixer Tools -->
<svg width="800px" height="800px" viewBox="0 0 64 64" xmlns="http://www.w3.org/2000/svg">
<g data-name="14_Online Learnning" id="_14_Online_Learnning">
<path d="M60,52H4a1,1,0,0,1-1-1V8A1,1,0,0,1,4,7H60a1,1,0,0,1,1,1V51A1,1,0,0,1,60,52Z" style="fill:#03a65a"/>
<path d="M8,48h9.418a33.732,33.732,0,0,1,13.4,2.756,3,3,0,0,0,2.369,0A33.72,33.72,0,0,1,46.582,48H56a3,3,0,0,0,3-3V7H58V45a2,2,0,0,1-2,2H46.582a34.738,34.738,0,0,0-13.793,2.838,2,2,0,0,1-1.579,0A34.746,34.746,0,0,0,17.418,47H8a2,2,0,0,1-2-2V7H5V45A3,3,0,0,0,8,48Z" style="fill:#acc6cc"/>
<path d="M6,45a2,2,0,0,0,2,2h9.418A34.746,34.746,0,0,1,31.21,49.837a2,2,0,0,0,1.579,0A34.738,34.738,0,0,1,46.582,47H56a2,2,0,0,0,2-2V7H6Z" style="fill:#cddbe0"/>
<path d="M26,26H10a3,3,0,0,0-3,3V46.722A1.978,1.978,0,0,0,8,47h9.418A34.688,34.688,0,0,1,29,48.985V29A3,3,0,0,0,26,26Z" style="fill:#b8ced3"/>
<path d="M54,2H34a2.948,2.948,0,0,0-2,.77A2.948,2.948,0,0,0,30,2H10A3.009,3.009,0,0,0,7,5V45a1,1,0,0,0,1,1h9.42A35.5,35.5,0,0,1,31,48.67c.21.08.41.16.61.25a.991.991,0,0,0,.78,0c.2-.09.4-.17.61-.25A35.5,35.5,0,0,1,46.58,46H56a1,1,0,0,0,1-1V5A3.009,3.009,0,0,0,54,2Z" style="fill:#fdfeff"/>
<path d="M26,26H10a3,3,0,0,0-3,3V45a1,1,0,0,0,1,1h9.418A35.7,35.7,0,0,1,29,47.928V29A3,3,0,0,0,26,26Z" style="fill:#dfeaef"/>
<path d="M17.418,47H8a1.978,1.978,0,0,1-1-.278v1.094A2.966,2.966,0,0,0,8,48h9.418A33.723,33.723,0,0,1,29,50.041V48.985A34.688,34.688,0,0,0,17.418,47Z" style="fill:#96b7bc"/>
<path d="M24,62H8a3,3,0,0,1-3-3V29a3,3,0,0,1,3-3H24a3,3,0,0,1,3,3V59A3,3,0,0,1,24,62Z" style="fill:#fdfeff"/>
<path d="M7,59V29a3,3,0,0,1,3-3H8a3,3,0,0,0-3,3V59a3,3,0,0,0,3,3h2A3,3,0,0,1,7,59Z" style="fill:#dfeaef"/>
<rect height="2" style="fill:#dfeaef" width="9" x="11" y="13"/>
<rect height="2" style="fill:#dfeaef" width="18" x="11" y="17"/>
<rect height="2" style="fill:#dfeaef" width="18" x="11" y="21"/>
<rect height="2" style="fill:#dfeaef" width="18" x="35" y="13"/>
<rect height="2" style="fill:#dfeaef" width="14" x="35" y="17"/>
<rect height="2" style="fill:#dfeaef" width="10" x="35" y="21"/>
<rect height="2" style="fill:#dfeaef" width="2" x="22" y="13"/>
<rect height="2" style="fill:#dfeaef" width="2" x="26" y="13"/>
<path d="M8,26H24a3,3,0,0,1,3,3v3a0,0,0,0,1,0,0H5a0,0,0,0,1,0,0V29A3,3,0,0,1,8,26Z" style="fill:#0455bf"/>
<path d="M10,26H8a3,3,0,0,0-3,3v3H7V29A3,3,0,0,1,10,26Z" style="fill:#004787"/>
<path d="M5,56H27a0,0,0,0,1,0,0v3a3,3,0,0,1-3,3H8a3,3,0,0,1-3-3V56A0,0,0,0,1,5,56Z" style="fill:#0455bf"/>
<path d="M26,60H10a3,3,0,0,1-3-3V56H5v3a3,3,0,0,0,3,3H24a2.99,2.99,0,0,0,2.86-2.14A2.983,2.983,0,0,1,26,60Z" style="fill:#004787"/>
<circle cx="16" cy="59" r="2" style="fill:#fdfeff"/>
<path d="M60.525,21.091A2.051,2.051,0,0,0,60,20.719a2.083,2.083,0,0,0-1-.234v8.03l.051-.051.737-.737h0L60,27.515l.525-.526h0L61,26.515V21.566Z" style="fill:#027d44"/>
<path d="M57,21.773v8.742l1-1v-8.03A2.072,2.072,0,0,0,57,21.773Z" style="fill:#b8ced3"/>
<path d="M58,20.773v8.742l1-1v-8.03A2.072,2.072,0,0,0,58,20.773Z" style="fill:#96b7bc"/>
<path d="M56.576,22.091l-1.18,1.18L53.627,25.04l-11.8,11.8-.737,3.686-.482,1.957L42.568,42l3.686-.738L57,30.515V21.773A2.071,2.071,0,0,0,56.576,22.091Z" style="fill:#dfeaef"/>
<path d="M59.525,24.989,55.1,20.565l1.474-1.474a2.086,2.086,0,0,1,2.949,0L61,20.565a2.087,2.087,0,0,1,0,2.95Z" style="fill:#f74e0c"/>
<path d="M60.263,19.828l-.738-.737a2.086,2.086,0,0,0-2.949,0L55.1,20.565l.737.738,1.474-1.475A2.087,2.087,0,0,1,60.263,19.828Z" style="fill:#cc2600"/>
<rect height="6.256" style="fill:#f74e0c" transform="translate(-6.692 44.144) rotate(-45)" width="16.683" x="41.599" y="27.022"/>
<rect height="2.085" style="fill:#febc00" transform="translate(-6.692 44.144) rotate(-45)" width="16.683" x="41.599" y="29.108"/>
<rect height="2.085" style="fill:#f74e0c" transform="translate(-6.081 42.669) rotate(-45)" width="16.683" x="40.124" y="27.633"/>
<rect height="6.256" style="fill:#dfeaef" transform="translate(0.312 47.045) rotate(-45)" width="3.128" x="55.381" y="20.018"/>
<path d="M56.576,23.515a2.087,2.087,0,0,1,0-2.95h0l-.737-.737L53.627,22.04l4.424,4.424.737-.737Z" style="fill:#c3d6dd"/>
<polygon points="42.568 38.998 41.093 37.523 41.83 33.837 46.254 38.261 42.568 38.998" style="fill:#f7d694"/>
<polygon points="41.093 37.523 40.611 39.48 42.568 38.998 41.093 37.523" style="fill:#f74e0c"/>
<path d="M33,2.17v46.5c-.21.08-.41.16-.61.25a.991.991,0,0,1-.78,0c-.2-.09-.4-.17-.61-.25V2.17a3,3,0,0,1,1,.6A3,3,0,0,1,33,2.17Z" style="fill:#dfeaef"/>
</g>
</svg>